<?xml version="1.0" encoding="UTF-8"?>
<svg version="1.1" xmlns="http://www.w3.org/2000/svg" width="1024" height="1024">
<path d="M0 0 C337.92 0 675.84 0 1024 0 C1024 337.92 1024 675.84 1024 1024 C686.08 1024 348.16 1024 0 1024 C0 686.08 0 348.16 0 0 Z " fill="#000C1E" transform="translate(0,0)"/>
<path d="M0 0 C3.38914202 -0.03892985 6.77813045 -0.06535218 10.16741943 -0.08737183 C11.13895966 -0.09986465 12.11049988 -0.11235748 13.11148071 -0.12522888 C45.46787239 -0.23546278 74.78634672 14.83584941 98.29241943 36.04544067 C98.98335693 36.66290161 99.67429443 37.28036255 100.38616943 37.91653442 C122.40942744 58.74513456 135.4795952 91.49877721 136.39956665 121.54484558 C136.45767705 125.78357021 136.48501368 130.02122399 136.49554443 134.26028442 C136.49837181 135.03494112 136.50119919 135.80959782 136.50411224 136.60772896 C136.51903728 140.71335302 136.52830699 144.8189426 136.53265381 148.92459106 C136.53810652 153.10964884 136.56208569 157.29437605 136.59062576 161.47933102 C136.60949577 164.74583273 136.61447063 168.01225896 136.61598969 171.2788105 C136.61896587 172.81858678 136.62681735 174.35836343 136.64017487 175.89808464 C136.85620663 202.73016128 130.02511024 229.98130113 114.29241943 252.04544067 C113.57570068 253.0586438 112.85898193 254.07184692 112.12054443 255.11575317 C102.58720058 268.21614326 91.25043824 279.70773739 77.29241943 288.04544067 C76.67060791 288.42007446 76.04879639 288.79470825 75.40814209 289.18069458 C67.27230339 293.99125861 58.91082028 297.82602047 49.97991943 300.92044067 C49.21228271 301.19452759 48.444646 301.4686145 47.65374756 301.75100708 C29.64329916 307.62445493 10.86781644 307.40882199 -7.853549 307.22223592 C-11.30927736 307.19385364 -14.76499644 307.1912467 -18.2208252 307.18812561 C-29.92720288 307.1740527 -41.63302507 307.13896889 -53.33892822 307.02859497 C-59.84228297 306.96753727 -66.34474985 306.94287126 -72.84838605 306.95753378 C-76.26894305 306.96369235 -79.68719429 306.95207372 -83.10732269 306.89463997 C-98.28464989 306.6723003 -110.07389756 306.74491215 -122.0940752 316.74391174 C-124.84127728 318.95993349 -127.81011758 320.81393325 -130.77008057 322.73294067 C-131.9855918 323.54704914 -133.20057577 324.36194648 -134.41461182 325.17825317 C-139.90650824 328.85558738 -145.42992428 332.48465942 -150.95758057 336.10794067 C-151.97086426 336.77591675 -152.98414795 337.44389282 -154.02813721 338.1321106 C-154.97938477 338.75448608 -155.93063232 339.37686157 -156.91070557 340.01809692 C-157.76309814 340.57763062 -158.61549072 341.13716431 -159.49371338 341.71365356 C-164.0693014 344.4661715 -168.50982629 344.6595589 -173.70758057 344.04544067 C-178.67634918 341.79543225 -180.61584483 339.01735931 -182.87856793 334.29122937 C-184.25954345 330.55017756 -184.25291734 327.01103512 -184.20205688 323.06007385 C-184.20688572 322.18994174 -184.21171455 321.31980962 -184.21668971 320.42330986 C-184.22790576 317.52547646 -184.21068278 314.62853635 -184.19342041 311.73074341 C-184.19556775 309.64555117 -184.19944764 307.5603601 -184.20492554 305.47517395 C-184.21460569 299.82180995 -184.19932842 294.16876262 -184.17901945 288.51543689 C-184.16141215 282.58607534 -184.16497436 276.65672306 -184.16574097 270.7273407 C-184.16386857 260.76325205 -184.14651896 250.79928528 -184.11920166 240.8352356 C-184.08781199 229.34394263 -184.0772035 217.85278337 -184.07867277 206.36145061 C-184.08002857 194.09840025 -184.0661122 181.8354009 -184.04777956 169.572366 C-184.04353372 166.05450764 -184.04209945 162.53665761 -184.04130173 159.01879692 C-184.0392783 153.46768825 -184.02695123 147.91668989 -184.00696945 142.36561775 C-184.00117424 140.3384837 -183.99865747 138.31133694 -183.99982452 136.28419495 C-184.00508014 121.58537427 -183.51615254 107.31927916 -179.08258057 93.17044067 C-178.82315674 92.33166382 -178.56373291 91.49288696 -178.29644775 90.62869263 C-167.93243332 58.36445615 -145.69343511 30.98747184 -115.72320557 15.07669067 C-96.38170145 5.15607229 -75.50104016 1.00985619 -53.90289307 0.72903442 C-52.53788755 0.70837846 -51.17288717 0.68738037 -49.80789185 0.6660614 C-46.94164202 0.62221784 -44.07537101 0.58132217 -41.20904541 0.54275513 C-37.61567679 0.49434747 -34.02241684 0.44055249 -30.42915535 0.38481236 C-22.81838684 0.26709212 -15.20756766 0.16721667 -7.59631348 0.08673096 C-5.06418668 0.05984502 -2.53207936 0.03103355 0 0 Z " fill="#000D1F" transform="translate(533.7075805664063,230.95455932617188)"/>
<path d="M0 0 C3.38914202 -0.03892985 6.77813045 -0.06535218 10.16741943 -0.08737183 C11.13895966 -0.09986465 12.11049988 -0.11235748 13.11148071 -0.12522888 C45.46787239 -0.23546278 74.78634672 14.83584941 98.29241943 36.04544067 C98.98335693 36.66290161 99.67429443 37.28036255 100.38616943 37.91653442 C122.40942744 58.74513456 135.4795952 91.49877721 136.39956665 121.54484558 C136.45767705 125.78357021 136.48501368 130.02122399 136.49554443 134.26028442 C136.49837181 135.03494112 136.50119919 135.80959782 136.50411224 136.60772896 C136.51903728 140.71335302 136.52830699 144.8189426 136.53265381 148.92459106 C136.53810652 153.10964884 136.56208569 157.29437605 136.59062576 161.47933102 C136.60949577 164.74583273 136.61447063 168.01225896 136.61598969 171.2788105 C136.61896587 172.81858678 136.62681735 174.35836343 136.64017487 175.89808464 C136.85620663 202.73016128 130.02511024 229.98130113 114.29241943 252.04544067 C113.57570068 253.0586438 112.85898193 254.07184692 112.12054443 255.11575317 C102.58720058 268.21614326 91.25043824 279.70773739 77.29241943 288.04544067 C76.67060791 288.42007446 76.04879639 288.79470825 75.40814209 289.18069458 C67.27230339 293.99125861 58.91082028 297.82602047 49.97991943 300.92044067 C49.21228271 301.19452759 48.444646 301.4686145 47.65374756 301.75100708 C29.64329916 307.62445493 10.86781644 307.40882199 -7.853549 307.22223592 C-11.30927736 307.19385364 -14.76499644 307.1912467 -18.2208252 307.18812561 C-29.92720288 307.1740527 -41.63302507 307.13896889 -53.33892822 307.02859497 C-59.84228297 306.96753727 -66.34474985 306.94287126 -72.84838605 306.95753378 C-76.26894305 306.96369235 -79.68719429 306.95207372 -83.10732269 306.89463997 C-98.28464989 306.6723003 -110.07389756 306.74491215 -122.0940752 316.74391174 C-124.84127728 318.95993349 -127.81011758 320.81393325 -130.77008057 322.73294067 C-131.9855918 323.54704914 -133.20057577 324.36194648 -134.41461182 325.17825317 C-139.90650824 328.85558738 -145.42992428 332.48465942 -150.95758057 336.10794067 C-151.97086426 336.77591675 -152.98414795 337.44389282 -154.02813721 338.1321106 C-154.97938477 338.75448608 -155.93063232 339.37686157 -156.91070557 340.01809692 C-157.76309814 340.57763062 -158.61549072 341.13716431 -159.49371338 341.71365356 C-164.0693014 344.4661715 -168.50982629 344.6595589 -173.70758057 344.04544067 C-178.67634918 341.79543225 -180.61584483 339.01735931 -182.87856793 334.29122937 C-184.25954345 330.55017756 -184.25291734 327.01103512 -184.20205688 323.06007385 C-184.20688572 322.18994174 -184.21171455 321.31980962 -184.21668971 320.42330986 C-184.22790576 317.52547646 -184.21068278 314.62853635 -184.19342041 311.73074341 C-184.19556775 309.64555117 -184.19944764 307.5603601 -184.20492554 305.47517395 C-184.21460569 299.82180995 -184.19932842 294.16876262 -184.17901945 288.51543689 C-184.16141215 282.58607534 -184.16497436 276.65672306 -184.16574097 270.7273407 C-184.16386857 260.76325205 -184.14651896 250.79928528 -184.11920166 240.8352356 C-184.08781199 229.34394263 -184.0772035 217.85278337 -184.07867277 206.36145061 C-184.08002857 194.09840025 -184.0661122 181.8354009 -184.04777956 169.572366 C-184.04353372 166.05450764 -184.04209945 162.53665761 -184.04130173 159.01879692 C-184.0392783 153.46768825 -184.02695123 147.91668989 -184.00696945 142.36561775 C-184.00117424 140.3384837 -183.99865747 138.31133694 -183.99982452 136.28419495 C-184.00508014 121.58537427 -183.51615254 107.31927916 -179.08258057 93.17044067 C-178.82315674 92.33166382 -178.56373291 91.49288696 -178.29644775 90.62869263 C-167.93243332 58.36445615 -145.69343511 30.98747184 -115.72320557 15.07669067 C-96.38170145 5.15607229 -75.50104016 1.00985619 -53.90289307 0.72903442 C-52.53788755 0.70837846 -51.17288717 0.68738037 -49.80789185 0.6660614 C-46.94164202 0.62221784 -44.07537101 0.58132217 -41.20904541 0.54275513 C-37.61567679 0.49434747 -34.02241684 0.44055249 -30.42915535 0.38481236 C-22.81838684 0.26709212 -15.20756766 0.16721667 -7.59631348 0.08673096 C-5.06418668 0.05984502 -2.53207936 0.03103355 0 0 Z M-135.40289307 59.11184692 C-153.31588773 81.91296386 -161.19333285 108.11105334 -161.1116333 136.8508606 C-161.11734962 138.68892834 -161.12431871 140.52699254 -161.13243103 142.36505127 C-161.15022204 147.30854094 -161.14922281 152.25185182 -161.14348865 157.19536376 C-161.1403814 161.33133843 -161.14650505 165.46727951 -161.15252739 169.60324937 C-161.16651984 179.35297034 -161.1650508 189.10260354 -161.15362549 198.85232544 C-161.14210273 208.90748599 -161.15630145 218.96238112 -161.18302196 229.01750678 C-161.20514891 237.66834997 -161.21182452 246.31910962 -161.20594555 254.96997911 C-161.20257322 260.12983824 -161.20501164 265.28952653 -161.22219658 270.4493618 C-161.23761953 275.28982562 -161.23376223 280.12989284 -161.21489143 284.97034073 C-161.21119505 286.7473232 -161.21434446 288.52433482 -161.22477722 290.30129051 C-161.23791512 292.72336102 -161.22650592 295.14410374 -161.20878601 297.56611633 C-161.21839102 298.2718405 -161.22799602 298.97756467 -161.23789209 299.70467442 C-161.18723485 303.06026218 -160.91112465 304.77987301 -158.84446812 307.47627735 C-156.76929898 309.22316503 -156.76929898 309.22316503 -154.01617432 309.63137817 C-149.18952294 308.7765993 -145.80361734 306.36762116 -141.77008057 303.67044067 C-140.93903809 303.13112915 -140.10799561 302.59181763 -139.25177002 302.03616333 C-135.25251856 299.43070055 -131.29148135 296.77009335 -127.34039307 294.09231567 C-126.67128906 293.64033813 -126.00218506 293.1883606 -125.31280518 292.72268677 C-124.07112521 291.87951415 -122.83456596 291.02872999 -121.60430908 290.16897583 C-116.26073212 286.50924427 -111.51583811 284.79823211 -105.03779602 284.78715515 C-103.93214294 284.78032715 -102.82648987 284.77349915 -101.68733215 284.76646423 C-100.48882126 284.76901718 -99.29031036 284.77157013 -98.05548096 284.77420044 C-96.09967406 284.76617654 -94.14386717 284.75815026 -92.18806064 284.75003517 C-90.09223655 284.74319363 -87.99645608 284.74118087 -85.90062141 284.74048042 C-81.5147069 284.73853064 -77.12894849 284.72042413 -72.74308777 284.69972229 C-61.84262388 284.65064228 -50.94211743 284.61975706 -40.04156494 284.59841919 C-31.57972521 284.58182439 -23.11801947 284.55878983 -14.65626901 284.51539844 C-11.01786731 284.49732727 -7.37964802 284.48498779 -3.74119759 284.48669624 C16.98747692 284.69101697 16.98747692 284.69101697 37.29241943 281.04544067 C38.05240738 280.84827957 38.81239532 280.65111847 39.59541321 280.44798279 C62.95082999 274.06054303 84.7354799 257.84353129 97.29241943 237.04544067 C103.88077957 225.22514748 108.82052199 213.36881245 111.29241943 200.04544067 C111.55414948 198.70345863 111.55414948 198.70345863 111.82116699 197.33436584 C112.36098656 193.56690278 112.44767101 189.87155875 112.45355225 186.07498169 C112.45851715 185.29840714 112.46348206 184.52183258 112.46859741 183.72172546 C112.48314354 181.16425673 112.49001106 178.60685016 112.49554443 176.04934692 C112.49837181 175.1689015 112.50119919 174.28845608 112.50411224 173.38133049 C112.51908011 168.7150836 112.5283227 164.04886739 112.53265381 159.38259888 C112.53811178 154.6019249 112.5620898 149.82153958 112.59062576 145.04095554 C112.6094144 141.33192679 112.61446645 137.62296503 112.61598969 133.91389275 C112.61898409 132.15393446 112.62690145 130.39397641 112.64017487 128.63406563 C112.83107942 101.35885374 105.25523578 76.48081761 85.90179443 56.68215942 C85.04070068 55.81204224 84.17960693 54.94192505 83.29241943 54.04544067 C82.31015381 52.97229614 82.31015381 52.97229614 81.30804443 51.87747192 C66.02010379 35.51153547 43.59980644 24.34523791 21.14373398 23.48360443 C16.14506463 23.39002366 11.15090661 23.40942591 6.15179443 23.45169067 C3.96903551 23.45340727 1.78627452 23.45333055 -0.39648438 23.4515686 C-4.93821333 23.45320919 -9.47944113 23.47167842 -14.02105713 23.50344849 C-19.80595716 23.54321636 -25.59020651 23.54747429 -31.37521744 23.53998566 C-35.87086822 23.53689927 -40.36637611 23.54909406 -44.86199188 23.56611633 C-46.9939662 23.57308257 -49.12595667 23.57627873 -51.2579422 23.57542419 C-83.7486953 23.59523175 -113.6431896 33.96333718 -135.40289307 59.11184692 Z " fill="#0096F2" transform="translate(533.7075805664063,230.95455932617188)"/>
<path d="M0 0 C9.98886734 8.24504812 16.52684956 20.33990163 18.4296875 33.15234375 C18.59429193 36.25758403 18.61476796 39.35572849 18.6171875 42.46484375 C18.62943359 43.28146484 18.64167969 44.09808594 18.65429688 44.93945312 C18.69031989 60.00907923 12.61207532 71.73406727 2.26171875 82.3828125 C-8.6803488 92.70515233 -22.02372854 96.75318585 -36.8828125 96.65234375 C-37.88538086 96.64589844 -38.88794922 96.63945313 -39.92089844 96.6328125 C-55.34848639 96.25470973 -67.21516199 90.03380516 -77.8828125 78.90234375 C-89.54020518 65.0666703 -90.81809538 49.47780901 -89.5703125 32.15234375 C-88.919525 27.54468481 -87.47809245 23.39119232 -85.5703125 19.15234375 C-85.1578125 18.20488281 -84.7453125 17.25742187 -84.3203125 16.28125 C-78.17218022 3.6880586 -68.45357468 -3.77883179 -55.5703125 -8.84765625 C-35.98841618 -15.3517262 -16.64040434 -11.9618712 0 0 Z " fill="#0098F3" transform="translate(447.5703125,663.84765625)"/>
<path d="M0 0 C10.56 0 21.12 0 32 0 C39.36571616 18.23316623 46.49970705 36.55005612 53.59790039 54.88867188 C54.42722866 57.03125675 55.25657438 59.17383487 56.0859375 61.31640625 C56.70235359 62.90891708 56.70235359 62.90891708 57.33122253 64.53359985 C62.38908072 77.59522986 67.48446736 90.64219123 72.58291626 103.6880188 C73.17581432 105.20606183 73.76809672 106.72434548 74.35971069 108.2428894 C75.89528913 112.18305131 77.44261769 116.11808587 79.00585938 120.04736328 C79.33201233 120.87236832 79.65816528 121.69737335 79.99420166 122.54737854 C80.61879637 124.12708315 81.24730591 125.70524727 81.88031006 127.28160095 C83.08075961 130.32857684 84 132.69395903 84 136 C74.76 136 65.52 136 56 136 C54.43035366 131.90770775 52.86274253 127.81475517 51.30029297 123.71972656 C50.7679579 122.32636632 50.23443423 120.9334596 49.69970703 119.54101562 C48.93210244 117.54154094 48.16876212 115.54048383 47.40625 113.5390625 C46.94541016 112.33459473 46.48457031 111.13012695 46.00976562 109.88916016 C45 107 45 107 45 105 C26.19 105 7.38 105 -12 105 C-12.33 106.65 -12.66 108.3 -13 110 C-13.72353984 112.07232087 -14.48910057 114.13022044 -15.28515625 116.17578125 C-15.68871338 117.21903564 -16.09227051 118.26229004 -16.50805664 119.3371582 C-17.02102295 120.649021 -17.53398926 121.96088379 -18.0625 123.3125 C-19.691875 127.499375 -21.32125 131.68625 -23 136 C-32.24 136 -41.48 136 -51 136 C-50.22424793 132.12123967 -49.36698165 129.0799934 -47.9453125 125.453125 C-47.50566162 124.32487305 -47.06601074 123.19662109 -46.61303711 122.03417969 C-46.37277802 121.42328491 -46.13251892 120.81239014 -45.88497925 120.1829834 C-45.09844085 118.18244764 -44.31731847 116.17986502 -43.53735352 114.17675781 C-42.35293194 111.13657685 -41.16635454 108.09725027 -39.97802734 105.05859375 C-36.28918719 95.62576539 -32.60805978 86.18995773 -28.9375 76.75 C-28.54116364 75.73096588 -28.14482727 74.71193176 -27.73648071 73.66201782 C-18.23367096 49.20399792 -9.1001351 24.61010781 0 0 Z " fill="#0098F3" transform="translate(637,622)"/>
<path d="M0 0 C9.9 0 19.8 0 30 0 C50.38312453 55.2752743 50.38312453 55.2752743 58.72897339 78.0696106 C59.36436494 79.8049665 60.00004279 81.5402176 60.63601685 83.27536011 C61.51218393 85.66630606 62.38716342 88.05768286 63.26171875 90.44921875 C63.63842209 91.47665192 63.63842209 91.47665192 64.0227356 92.52484131 C65.41223171 96.33015566 66.73792015 100.15056352 68 104 C68.36013184 103.03964844 68.72026367 102.07929687 69.09130859 101.08984375 C69.3342012 100.44213516 69.57709381 99.79442657 69.8273468 99.12709045 C70.38805956 97.63184601 70.94875841 96.13659635 71.50944519 94.64134216 C73.13350115 90.3103358 74.75782233 85.97942918 76.38256836 81.64868164 C79.78749022 72.57203729 83.19009947 63.49454399 86.58502197 54.41415405 C88.18569656 50.13327357 89.78765432 45.85287376 91.38970947 41.57250977 C92.16338695 39.50437706 92.93647127 37.43602235 93.70892334 35.36743164 C106.27113848 1.72886152 106.27113848 1.72886152 108 0 C110.07262076 -0.08767112 112.14820294 -0.10695873 114.22265625 -0.09765625 C115.48271484 -0.09443359 116.74277344 -0.09121094 118.04101562 -0.08789062 C119.38151109 -0.07953403 120.72200588 -0.07106907 122.0625 -0.0625 C123.40689942 -0.0574866 124.7513006 -0.05292342 126.09570312 -0.04882812 C129.39717941 -0.03699488 132.69856803 -0.02050971 136 0 C134.09188719 6.71888609 131.8608635 13.20605567 129.25390625 19.68359375 C128.7091011 21.05281227 128.7091011 21.05281227 128.15328979 22.44969177 C127.36936682 24.41873836 126.58358459 26.38704558 125.79611206 28.35467529 C123.66009394 33.69263336 121.53845312 39.03631273 119.4140625 44.37890625 C118.97156662 45.49052124 118.52907074 46.60213623 118.07316589 47.74743652 C113.15503917 60.10776537 108.29233015 72.4897003 103.4375 84.875 C103.01496948 85.95214264 102.59243896 87.02928528 102.15710449 88.1390686 C98.26319943 98.0669089 94.37099939 107.99514616 90.5546875 117.953125 C90.3093074 118.59335602 90.06392731 119.23358704 89.81111145 119.89321899 C88.74367717 122.68187107 87.68114288 125.4722796 86.62475586 128.26513672 C86.10860718 129.62276123 86.10860718 129.62276123 85.58203125 131.0078125 C85.29561768 131.76723145 85.0092041 132.52665039 84.71411133 133.30908203 C84 135 84 135 83 136 C80.78144736 136.08783542 78.56011504 136.10694609 76.33984375 136.09765625 C75.34314415 136.09553383 75.34314415 136.09553383 74.3263092 136.09336853 C72.19666101 136.08775518 70.06711661 136.07520054 67.9375 136.0625 C66.49674631 136.05748671 65.05599097 136.05292351 63.61523438 136.04882812 C60.07678898 136.03778145 56.53840461 136.02050792 53 136 C43.89162148 114.12544875 35.37058341 92.02639033 26.83551025 69.92359924 C23.79647712 62.05493325 20.74659015 54.19053302 17.69140625 46.328125 C16.82355728 44.09391681 15.9557186 41.85970462 15.08789062 39.62548828 C13.83782686 36.40733458 12.58749974 33.18928486 11.33618164 29.97161865 C10.18266046 27.00494101 9.03063139 24.03768778 7.87890625 21.0703125 C7.54427872 20.21085022 7.20965118 19.35138794 6.86488342 18.46588135 C4.48844232 12.33760047 2.2476364 6.1810001 0 0 Z " fill="#0099F3" transform="translate(221,622)"/>
<path d="M0 0 C24.48376736 -2.84779877 24.48376736 -2.84779877 31.52050781 1.58935547 C35.59454916 5.69000522 38.25451395 10.56875972 40.8125 15.71240234 C42.50204351 18.96713562 44.58455786 21.71417834 46.8125 24.625 C47.43769531 25.48351562 48.06289063 26.34203125 48.70703125 27.2265625 C49.34705078 28.10441406 49.34705078 28.10441406 50 29 C53.13958219 26.05563402 55.49357035 22.98754071 57.85546875 19.39453125 C58.55994141 18.32912109 59.26441406 17.26371094 59.99023438 16.16601562 C60.72286971 15.04831698 61.45528913 13.93047677 62.1875 12.8125 C63.63753659 10.60949298 65.09019859 8.40823865 66.54296875 6.20703125 C67.5023938 4.74487183 67.5023938 4.74487183 68.48120117 3.25317383 C70 1 70 1 71 0 C73.14558827 -0.08775605 75.29404421 -0.10695219 77.44140625 -0.09765625 C78.74658203 -0.09443359 80.05175781 -0.09121094 81.39648438 -0.08789062 C82.7851569 -0.07953401 84.17382877 -0.07106905 85.5625 -0.0625 C86.95507656 -0.05748666 88.34765481 -0.05292347 89.74023438 -0.04882812 C93.1601987 -0.03699434 96.58007844 -0.0205088 100 0 C96.88288179 5.7007443 93.32394298 10.95684879 89.5625 16.25 C84.0299586 24.08892739 78.57021229 31.97246857 73.17602539 39.90722656 C72.67063232 40.6494043 72.16523926 41.39158203 71.64453125 42.15625 C71.20471924 42.80400391 70.76490723 43.45175781 70.31176758 44.11914062 C69 46 69 46 67.29858398 48.08813477 C66.87005127 48.71905029 66.44151855 49.34996582 66 50 C66.95313625 54.01218842 69.23707673 56.85521635 71.75 60.0625 C76.60578716 66.40395473 81.18421716 72.91552769 85.74365234 79.47241211 C88.50823133 83.44522287 91.28061709 87.40909053 94.12109375 91.328125 C94.58974854 91.97539551 95.05840332 92.62266602 95.54125977 93.28955078 C96.40887022 94.4835276 97.2802604 95.67477006 98.15600586 96.86279297 C101 100.78091625 101 100.78091625 101 103 C76.64580182 106.16794653 76.64580182 106.16794653 69.38134766 101.21435547 C65.02587581 96.57903785 62.1040818 91.14842312 59.28564453 85.48388672 C57.53958771 82.11047575 55.43368964 79.26357258 53.125 76.25 C52.50882813 75.40953125 51.89265625 74.5690625 51.2578125 73.703125 C50.84273437 73.14109375 50.42765625 72.5790625 50 72 C46.2346981 75.43979683 43.56649188 79.35371965 40.75 83.5625 C39.37261056 85.60838784 37.99071473 87.64580301 36.56640625 89.65942383 C34.91173979 92.05245494 34.91173979 92.05245494 33.40234375 94.95581055 C31.49554148 98.17665507 29.84020894 100.55027903 27 103 C21.76681269 104.32681221 16.82039679 104.05173102 11.5 103.6875 C10.09133787 103.6322361 8.6824664 103.58206099 7.2734375 103.53710938 C3.84357441 103.4079022 0.42451 103.22755805 -3 103 C0.8883118 97.08593215 4.89681145 91.2840949 9.0625 85.5625 C10.19792505 83.99609983 11.33334145 82.42969338 12.46875 80.86328125 C13.64582506 79.24218149 14.8229085 77.62108782 16 76 C18.35611055 72.75140398 20.70976143 69.50103858 23.0625 66.25 C23.59818604 65.51209229 24.13387207 64.77418457 24.68579102 64.01391602 C25.68124075 62.63862986 26.67188095 61.25984438 27.65673828 59.87695312 C28.51947388 58.67144399 29.39697843 57.47629441 30.29248047 56.29492188 C32.48070463 53.47131094 32.48070463 53.47131094 32.74658203 50.06274414 C31.94500251 47.84804651 30.96589043 46.19385804 29.62109375 44.26171875 C29.1194873 43.53476807 28.61788086 42.80781738 28.10107422 42.05883789 C27.55209473 41.27629639 27.00311523 40.49375488 26.4375 39.6875 C25.87047363 38.86950928 25.30344727 38.05151855 24.71923828 37.20874023 C23.48361235 35.42800484 22.24520441 33.64919745 21.00439453 31.87207031 C18.89091531 28.84369399 16.78656031 25.80912218 14.68359375 22.7734375 C11.90387362 18.76495295 9.12322375 14.7571344 6.3359375 10.75390625 C5.76407715 9.93220947 5.1922168 9.1105127 4.60302734 8.26391602 C3.53669653 6.75796328 2.43229617 5.27824221 1.29150391 3.82788086 C0 2 0 2 0 0 Z " fill="#0097F2" transform="translate(476,655)"/>
<path d="M0 0 C3.29110633 2.10070617 4.8333853 3.75007795 7 7 C7.26006222 9.9604845 7.26006222 9.9604845 7.27415466 13.66035461 C7.28200968 14.6807793 7.28200968 14.6807793 7.29002339 15.72181863 C7.30505178 18.00641801 7.30572915 20.29079399 7.30639648 22.57543945 C7.31401613 24.21144999 7.32244329 25.84745693 7.33161926 27.48345947 C7.35359179 31.9318968 7.36236698 36.38026538 7.36744571 40.82875085 C7.37108636 43.6076408 7.37732493 46.38651267 7.3844471 49.16539574 C7.40895221 58.85921395 7.42199556 68.55297857 7.42553711 78.24682617 C7.4291721 87.28382155 7.45906206 96.32047722 7.50094169 105.35736877 C7.53563103 113.11458321 7.55108532 120.87168503 7.55178314 128.62897652 C7.5525765 133.26265843 7.56134147 137.89599453 7.58978081 142.52959633 C7.61593797 146.88899204 7.61818006 151.2477547 7.60212517 155.60719299 C7.60030872 157.20595873 7.60701918 158.80476065 7.62294388 160.4034481 C7.64338716 162.589279 7.63286682 164.77289134 7.61473083 166.95869446 C7.61674216 168.18078267 7.61875349 169.40287088 7.62082577 170.66199207 C6.78808777 175.13939329 5.17890632 176.77744298 2 180 C-1.94624538 182.28466838 -5.49607457 182.47409741 -10 182 C-14.45189375 179.68843978 -16.81787112 177.48450784 -19 173 C-19.38031673 169.84306526 -19.38031673 169.84306526 -19.38768005 166.21975708 C-19.39306559 165.55072133 -19.39845113 164.88168558 -19.40399987 164.19237602 C-19.41827109 161.95765168 -19.41117812 159.7235204 -19.40405273 157.48876953 C-19.40975682 155.88364181 -19.41672123 154.27851815 -19.42485046 152.67340088 C-19.44279434 148.31793547 -19.44161101 143.96267139 -19.43590808 139.60718012 C-19.43281752 135.96905373 -19.43890731 132.3309661 -19.44494683 128.69284523 C-19.45899493 120.10818565 -19.45742883 111.52362558 -19.44604492 102.93896484 C-19.43456746 94.08829732 -19.4486324 85.23793295 -19.4754414 76.38730538 C-19.49760904 68.78373938 -19.50423326 61.18026845 -19.49836498 53.57667243 C-19.49499625 49.03751294 -19.49740469 44.4985477 -19.51461601 39.95941544 C-19.53009971 35.68949617 -19.52611398 31.42002524 -19.50731087 27.1501236 C-19.50362869 25.5856548 -19.50672268 24.02115269 -19.51719666 22.45671463 C-19.60847135 7.69288144 -19.60847135 7.69288144 -15 2 C-10.16604627 -1.59736091 -5.63160118 -1.5481708 0 0 Z " fill="#0097F4" transform="translate(506,296)"/>
<path d="M0 0 C8.91 0 17.82 0 27 0 C27 44.88 27 89.76 27 136 C18.09 136 9.18 136 0 136 C0 91.12 0 46.24 0 0 Z " fill="#0098F4" transform="translate(742,622)"/>
<path d="M0 0 C4.12973095 2.24441899 5.8136942 4.87941234 7.38018799 9.27340698 C8.81904161 15.60301686 8.42672389 22.26245976 8.3984375 28.72265625 C8.40046147 30.35355255 8.4033756 31.98444796 8.40713501 33.61534119 C8.4115419 37.02205073 8.4051795 40.42852323 8.39111328 43.83520508 C8.37400858 48.18845228 8.38388087 52.54114501 8.40183067 56.89437199 C8.41270128 60.25825637 8.40920743 63.62201054 8.4014473 66.98589897 C8.39945504 68.59057113 8.4018701 70.19525535 8.40888596 71.79991341 C8.41655638 74.04669392 8.40482014 76.29259143 8.38818359 78.53930664 C8.38579681 79.81423477 8.38341003 81.0891629 8.38095093 82.40272522 C7.89816058 86.96165763 6.78138294 91.20057773 3.45703125 94.55859375 C-1.26510279 97.08229959 -4.64501181 97.6799985 -10 97 C-14.67795522 94.84094375 -17.16176591 92.13397761 -19.265625 87.546875 C-20.51211754 83.22393278 -20.54414164 78.84475343 -20.62890625 74.3671875 C-21.04420032 70.59894023 -22.01887078 68.21642155 -24 65 C-27.14053439 62.9063104 -27.90965633 62.75358669 -31.4921875 62.7265625 C-32.79736328 62.695625 -32.79736328 62.695625 -34.12890625 62.6640625 C-35.95172965 62.63813329 -37.77467846 62.61983685 -39.59765625 62.609375 C-43.86777427 62.49584158 -46.35511335 62.40047378 -50.05078125 60.10546875 C-53.20724863 56.69597793 -53.90180976 54.09973071 -54.3125 49.5 C-53.97170637 45.68311135 -53.38788303 43.96426858 -51 41 C-45.93775152 37.01769786 -40.73131939 37.56552867 -34.59375 37.56054688 C-30.72382658 37.46702373 -28.46833673 37.26762099 -25.046875 35.3125 C-22.69834109 32.65919452 -22.00245114 30.88317566 -21.25 27.4375 C-21.01796875 26.38175781 -20.7859375 25.32601563 -20.546875 24.23828125 C-20.0320619 21.18985224 -19.71924677 18.20710367 -19.5 15.125 C-19.06711166 9.33928085 -17.84035053 5.66080413 -13.4375 1.6875 C-8.75480533 -1.55436554 -5.4704086 -1.19457796 0 0 Z " fill="#0097F2" transform="translate(457,342)"/>
<path d="M0 0 C3.59404585 1.96496899 4.74316322 4.63229355 6.25 8.375 C6.68022252 11.74934897 6.66013848 15.09385142 6.63818359 18.49194336 C6.64344055 19.49594681 6.64869751 20.49995026 6.65411377 21.53437805 C6.66728943 24.84469276 6.65858337 28.15452436 6.6484375 31.46484375 C6.65045909 33.77120557 6.65337123 36.07756676 6.65713501 38.38392639 C6.66155521 43.2149159 6.6551375 48.04573885 6.64111328 52.87670898 C6.62403139 59.061676 6.63385848 65.24625216 6.65183067 71.4312048 C6.66268477 76.19335358 6.65921449 80.95541012 6.6514473 85.71756172 C6.6494493 87.99767669 6.65189046 90.27780009 6.65888596 92.5579052 C6.66652591 95.74838227 6.65485957 98.93823164 6.63818359 102.12866211 C6.64729263 103.53548752 6.64729263 103.53548752 6.65658569 104.97073364 C6.60285543 110.53479048 5.92282154 114.46028426 3.25 119.375 C-0.11751813 122.49611436 -2.41066333 124.24621763 -7 124.6875 C-11.46151398 124.31570717 -13.34734648 123.23632228 -16.75 120.375 C-20.65500233 115.65367954 -20.18715245 110.72821097 -20.16992188 104.89672852 C-20.17839142 103.84249695 -20.18686096 102.78826538 -20.19558716 101.7020874 C-20.21897505 98.21923744 -20.21997888 94.73682878 -20.21875 91.25390625 C-20.22585024 88.83161746 -20.23354903 86.40933036 -20.24182129 83.98704529 C-20.25527008 78.91050541 -20.25683289 73.83412107 -20.25097656 68.75756836 C-20.24507888 62.25282653 -20.27567417 55.74883065 -20.31609344 49.24423313 C-20.34194445 44.24191773 -20.3448502 39.23978258 -20.34120178 34.23740959 C-20.34289531 31.83922386 -20.35256006 29.44103 -20.37034607 27.04290962 C-20.39248421 23.68898724 -20.38285863 20.33658327 -20.36523438 16.98266602 C-20.37849762 15.9928624 -20.39176086 15.00305878 -20.40542603 13.98326111 C-20.35054292 9.48753121 -20.23275257 6.36726553 -17.32873535 2.79795837 C-12.09496991 -2.11964428 -6.69461895 -3.39684682 0 0 Z " fill="#0096F3" transform="translate(554.75,325.625)"/>
<path d="M0 0 C6.43992709 3.96303205 9.76221888 9.83450224 12 17 C13.67225368 28.16609388 12.59127455 39.05938629 5.75 48.3125 C-1.34159116 55.24291863 -7.9751743 57.34772892 -17.73608398 57.3828125 C-26.15167013 57.20103811 -32.0227756 54.3864929 -37.875 48.3125 C-44.07200878 40.43072524 -45.80410344 32.73922097 -45.51171875 22.7578125 C-44.2594481 13.56174868 -39.32848529 5.63367499 -32 0 C-22.71495892 -7.02141933 -9.70019819 -5.40696232 0 0 Z " fill="#000C1E" transform="translate(428,679)"/>
<path d="M0 0 C3.72387491 1.99019443 4.95823718 5.58855362 6.1875 9.4375 C6.45272102 12.18171141 6.58700542 14.68424247 6.55078125 17.41796875 C6.55127975 18.15324295 6.55177826 18.88851715 6.55229187 19.64607239 C6.5499668 21.18814826 6.54033168 22.73022906 6.52368164 24.2722168 C6.49995885 26.62908818 6.50314839 28.98483529 6.50976562 31.34179688 C6.50419194 32.84636089 6.49708401 34.35092017 6.48828125 35.85546875 C6.48964836 36.90712471 6.48964836 36.90712471 6.49104309 37.98002625 C6.43836981 41.61503899 6.24656288 44.38139766 4.1875 47.4375 C0.43466224 50.43437044 -3.64915816 51.80324623 -8.4375 51.625 C-12.87192929 50.88081377 -14.97627822 48.86520069 -17.71875 45.421875 C-20.18711386 40.94355771 -19.99652568 35.90323634 -20.05078125 30.90625 C-20.058853 30.19271362 -20.06692474 29.47917725 -20.07524109 28.74401855 C-20.08901538 27.24131658 -20.09976702 25.73858419 -20.10766602 24.23583984 C-20.11922271 22.70351963 -20.13973262 21.1712408 -20.16918945 19.63916016 C-20.21188957 17.41541434 -20.22803214 15.19285491 -20.23828125 12.96875 C-20.25578934 12.28840698 -20.27329742 11.60806396 -20.29133606 10.90710449 C-20.26967357 6.1373306 -19.13849164 3.80910658 -15.8125 0.4375 C-11.18991259 -3.02944056 -4.95661302 -2.44680261 0 0 Z " fill="#0097F2" transform="translate(602.8125,363.5625)"/>
<path d="M0 0 C1.73434882 2.60152322 2.71797464 4.639653 3.78759766 7.53149414 C4.29790024 8.90290306 4.29790024 8.90290306 4.81851196 10.30201721 C5.18004364 11.28645309 5.54157532 12.27088898 5.9140625 13.28515625 C6.28856537 14.29718613 6.66306824 15.309216 7.04891968 16.35191345 C7.83920575 18.49049771 8.62753781 20.62980492 9.4140625 22.76977539 C10.62221083 26.05491581 11.83799085 29.33715797 13.0546875 32.61914062 C13.82077033 34.69514361 14.58641051 36.77131001 15.3515625 38.84765625 C15.71714264 39.83411636 16.08272278 40.82057648 16.4593811 41.83692932 C16.7932785 42.74804977 17.1271759 43.65917023 17.47119141 44.59790039 C17.76716217 45.40159561 18.06313293 46.20529083 18.36807251 47.03334045 C19 49 19 49 19 51 C6.79 51 -5.42 51 -18 51 C-13.82448193 38.32160876 -9.58775958 25.6829392 -5.0625 13.125 C-4.67328369 12.04420166 -4.28406738 10.96340332 -3.88305664 9.84985352 C-1.1391094 2.2782188 -1.1391094 2.2782188 0 0 Z " fill="#000D1E" transform="translate(653,652)"/>
<path d="M0 0 C8.58 0 17.16 0 26 0 C26 44.88 26 89.76 26 136 C25.67 136 25.34 136 25 136 C24.04177183 107.62543254 23.87176928 79.27771014 23.93133545 50.88879395 C23.94179875 45.34904379 23.94618088 39.80928856 23.95117188 34.26953125 C23.96171044 23.51300611 23.97920736 12.75651021 24 2 C16.41 2 8.82 2 1 2 C0.67 1.34 0.34 0.68 0 0 Z " fill="#008CD8" transform="translate(743,622)"/>
<path d="M0 0 C0.33 0.99 0.66 1.98 1 3 C1.92337158 2.98952637 2.84674316 2.97905273 3.7980957 2.96826172 C7.22536718 2.9341681 10.65245833 2.90909554 14.07983398 2.89013672 C15.56293583 2.88008179 17.04601788 2.86643596 18.52905273 2.84912109 C20.66134531 2.82484994 22.79337569 2.81351201 24.92578125 2.8046875 C26.85031128 2.78897705 26.85031128 2.78897705 28.8137207 2.77294922 C32 3 32 3 35 5 C22.79 5 10.58 5 -2 5 C-1.34 3.35 -0.68 1.7 0 0 Z " fill="#02050C" transform="translate(637,698)"/>
<path d="M0 0 C2.0625 1.6875 2.0625 1.6875 4 4 C3.75 6.75 3.75 6.75 3 9 C2.34 8.67 1.68 8.34 1 8 C0.26924352 5.6859378 -0.40138258 3.35171131 -1 1 C-0.67 0.67 -0.34 0.34 0 0 Z " fill="#021527" transform="translate(287,718)"/>
<path d="M0 0 C2.31 0.33 4.62 0.66 7 1 C5.875 2.5 5.875 2.5 4 4 C0.8125 4.1875 0.8125 4.1875 -2 4 C-1.34 2.68 -0.68 1.36 0 0 Z " fill="#011429" transform="translate(379,536)"/>
<path d="M0 0 C0.66 0 1.32 0 2 0 C2.66 1.32 3.32 2.64 4 4 C1.69 4.33 -0.62 4.66 -3 5 C-1.625 2.5 -1.625 2.5 0 0 Z " fill="#01A2EE" transform="translate(476,753)"/>
</svg>
